HIERARCHY
ROOT Hips
{
  OFFSET 0 0 0
  CHANNELS 6 Xposition Yposition Zposition Zrotation Yrotation Xrotation
  JOINT LeftThigh
  {
    OFFSET 8.409438 0 -5.917753
    CHANNELS 3 Zrotation Yrotation Xrotation
    JOINT LeftLeg
    {
      OFFSET 0 0 -42.358652
      CHANNELS 3 Zrotation Yrotation Xrotation
      JOINT LeftFoot
      {
        OFFSET 0 0 -39.357303
        CHANNELS 3 Zrotation Yrotation Xrotation
      }
    }
  }
  JOINT RightThigh
  {
    OFFSET -8.409438 0 -5.917753
    CHANNELS 3 Zrotation Yrotation Xrotation
    JOINT RightLeg
    {
      OFFSET 0 0 -42.358652
      CHANNELS 3 Zrotation Yrotation Xrotation
      JOINT RightFoot
      {
        OFFSET 0 0 -39.357303
        CHANNELS 3 Zrotation Yrotation Xrotation
      }
    }
  }
  JOINT SpineLow
  {
    OFFSET 0 0 4.719101
    CHANNELS 3 Zrotation Yrotation Xrotation
    JOINT SpineMid
    {
      OFFSET 0 0 12.899191
      CHANNELS 3 Zrotation Yrotation Xrotation
      JOINT Chest
      {
        OFFSET 0 0 12.899191
        CHANNELS 3 Zrotation Yrotation Xrotation
        JOINT LeftShoulder
        {
          OFFSET 7.550562 1.41573 9.438202
          CHANNELS 3 Zrotation Yrotation Xrotation
          JOINT LeftArm
          {
            OFFSET 9.155056 0 4.247191
            CHANNELS 3 Zrotation Yrotation Xrotation
            JOINT LeftForearm
            {
              OFFSET 0 0 25.771955
              CHANNELS 3 Zrotation Yrotation Xrotation
              JOINT LeftHand
              {
                OFFSET 0 0 25.197169
                CHANNELS 3 Zrotation Yrotation Xrotation
              }
            }
          }
        }
        JOINT RightShoulder
        {
          OFFSET -7.550562 1.41573 9.438202
          CHANNELS 3 Zrotation Yrotation Xrotation
          JOINT RightArm
          {
            OFFSET -9.155056 0 4.247191
            CHANNELS 3 Zrotation Yrotation Xrotation
            JOINT RightForearm
            {
              OFFSET 0 0 -25.771955
              CHANNELS 3 Zrotation Yrotation Xrotation
              JOINT RightHand
              {
                OFFSET 0 0 -25.197169
                CHANNELS 3 Zrotation Yrotation Xrotation
              }
            }
          }
        }
        JOINT Neck
        {
          OFFSET 0 0 15.101124
          CHANNELS 3 Zrotation Yrotation Xrotation
          JOINT Head
          {
            OFFSET 0 0 11.325843
            CHANNELS 3 Zrotation Yrotation Xrotation
            End Site
            {
              OFFSET 0 0 14.157303
            }
          }
        }
      }
    }
  }
}
MOTION
Frames: 12
Frame Time: 0.0
0.0  89.887642  0.0  0.144076  -26.31076  -95.354335  7.48766  -16.640645  0.500554  3.413929  5.970162  26.420543  1.396493  0.699056  0.540747  -13.128224  6.559803  -0.603134  -16.578658  3.094575  -2.320326  9.506824  -0.068021  -0.180528  0.359157  -1.068398  0.19608  0.973632  -2.923178  0.520389  0.973632  -2.923177  0.520389  -4.066508  16.455649  -0.212392  160.204446  45.074161  -156.50026  -11.523086  -4.645682  20.741361  101.07723  -14.184192  12.882128  -3.628337  -0.717267  16.77527  89.693784  32.466192  35.956294  -4.301858  14.49628  -36.966218  103.406959  9.438992  -21.664203  -0.563161  4.077025  4.155921  -0.449984  3.054111  3.11939  
0.0  89.887642  0.0  0.188036  -26.41861  -95.453931  7.612207  -16.685728  0.616799  3.492318  6.086859  26.548862  1.322747  0.668395  0.4566  -13.179582  6.664623  -0.520318  -16.257693  3.026584  -2.375915  9.401911  -0.103098  -0.158525  0.364168  -1.060498  0.209647  0.986795  -2.901825  0.557387  0.986795  -2.901825  0.557387  -3.989987  16.471586  -0.215535  160.006366  44.875853  -156.457546  -11.275992  -4.662791  20.458859  101.395528  -14.04616  12.95498  -3.654736  -0.673889  16.745205  89.0636  32.375371  35.639933  -4.295613  14.207558  -37.267167  103.123788  9.425517  -21.681106  -0.449496  4.131674  4.175094  -0.365266  3.09586  3.133007  
0.0  89.887642  0.0  0.20186  -26.501788  -95.540521  7.69858  -16.714823  0.747366  3.460794  6.15371  26.562137  1.34167  0.676615  0.442009  -13.035529  6.756927  -0.354021  -16.219336  2.938013  -2.469106  9.351242  -0.137742  -0.138558  0.35827  -1.062738  0.215782  0.970377  -2.907988  0.574393  0.970377  -2.907988  0.574393  -3.860682  16.480085  -0.166564  159.92865  44.667168  -156.398556  -11.106811  -4.676857  20.258629  101.833896  -13.955436  13.104638  -3.767852  -0.612461  16.67733  88.852516  32.228199  35.498546  -4.286422  14.174958  -37.496693  102.902625  9.500582  -21.574628  -0.368146  4.190092  4.181002  -0.304715  3.140227  3.13688  
0.0  89.887642  0.0  0.270504  -26.634043  -95.651995  7.857275  -16.674025  0.92081  3.503516  6.217735  26.599321  1.293622  0.630502  0.371502  -12.876849  6.910807  -0.239997  -16.149702  2.823507  -2.47389  9.313545  -0.152701  -0.128059  0.361463  -1.055911  0.220351  0.978962  -2.88942  0.586847  0.978962  -2.88942  0.586846  -3.738082  16.430113  -0.101106  160.238834  44.39223  -156.336306  -10.669663  -4.60896  20.366399  102.304604  -13.807789  13.215949  -3.848981  -0.571108  16.608966  88.700752  32.123477  35.379839  -4.13505  14.533587  -37.671924  102.789281  9.666015  -21.464992  -0.205724  4.263127  4.240479  -0.183861  3.196101  3.180327  
0.0  89.887642  0.0  0.294813  -26.769544  -95.733764  7.947336  -16.668394  1.088206  3.527905  6.241497  26.571695  1.301483  0.626275  0.35665  -12.734514  7.006162  -0.119958  -16.161825  2.752356  -2.516243  9.310933  -0.171765  -0.123047  0.361175  -1.054898  0.224481  0.978003  -2.886711  0.598168  0.978003  -2.886711  0.598168  -3.604946  16.359932  -0.048735  160.464149  44.189908  -156.226004  -10.311126  -4.524065  20.329929  102.802474  -13.685933  13.252989  -3.896984  -0.515915  16.532939  88.724496  32.011429  35.319524  -3.98694  14.971673  -37.831935  102.794826  9.736964  -21.26433  -0.116636  4.306524  4.250761  -0.117446  3.229267  3.187391  
0.0  89.887642  0.0  0.371308  -26.968491  -95.817092  8.066325  -16.582595  1.242089  3.53174  6.25155  26.514599  1.332829  0.620495  0.338242  -12.612989  7.146635  -0.059154  -16.212387  2.643694  -2.512477  9.414631  -0.165257  -0.118606  0.392314  -1.043716  0.227562  1.063125  -2.856472  0.605409  1.063125  -2.856472  0.605409  -3.479458  16.284053  0.019293  160.537985  44.017561  -156.106561  -9.819064  -4.453234  20.344109  102.774215  -13.46128  13.266597  -4.040898  -0.444455  16.443403  88.611816  32.010169  35.147253  -3.715881  15.161535  -37.989355  102.890728  9.803927  -21.093192  -0.024969  4.3547  4.300919  -0.04942  3.266041  3.224313  
0.0  89.887642  0.0  0.410845  -27.121811  -95.877549  8.091763  -16.536877  1.411499  3.629386  6.250533  26.474782  1.345053  0.611339  0.325478  -12.611271  7.248933  -0.009192  -16.18079  2.593019  -2.519577  9.477597  -0.16554  -0.124437  0.402129  -1.038347  0.21996  1.090339  -2.841761  0.584277  1.090339  -2.841761  0.584277  -3.375791  16.208982  0.081828  160.697035  43.834979  -156.075945  -9.507111  -4.32206  20.301837  103.030582  -13.32174  13.209782  -4.079623  -0.356209  16.441243  88.8869  31.925608  35.143245  -3.764669  15.08188  -38.212333  102.82451  9.80514  -21.04047  0.03074  4.372849  4.337532  -0.008046  3.28005  3.251347  
0.0  89.887642  0.0  0.485106  -27.216514  -95.93626  7.928762  -16.440073  1.517599  3.812921  6.244911  26.491167  1.373732  0.607783  0.321655  -12.729246  7.404685  -0.016691  -16.180229  2.508228  -2.476015  9.588555  -0.150377  -0.141323  0.419408  -1.025182  0.219655  1.137712  -2.805921  0.58292  1.137712  -2.805921  0.58292  -3.237148  16.132116  0.1502  160.488245  43.72173  -155.968115  -9.276522  -4.26162  20.102675  103.130599  -13.10993  13.124846  -4.31194  -0.271347  16.283554  89.015423  31.886672  35.020015  -3.558193  14.920548  -38.546684  102.603621  9.788109  -21.00855  0.070308  4.389123  4.366498  0.021292  3.292543  3.272764  
0.0  89.887642  0.0  0.550874  -27.357768  -96.022703  7.881209  -16.371972  1.702033  3.96978  6.247962  26.476724  1.387211  0.593116  0.316825  -12.841256  7.524998  0.015694  -16.092002  2.483028  -2.460674  9.672736  -0.138592  -0.150029  0.426911  -1.012297  0.217415  1.158429  -2.770728  0.576695  1.15843  -2.770728  0.576695  -3.131086  16.037378  0.221293  160.565755  43.575211  -155.928176  -9.060668  -4.120444  19.951042  103.384399  -12.993531  13.04748  -4.223126  -0.183687  16.304624  89.382014  31.81295  35.039167  -3.769357  14.63717  -38.988983  102.27689  9.748809  -20.999055  0.115064  4.377003  4.387316  0.054783  3.283778  3.28806  
0.0  89.887642  0.0  0.631095  -27.42661  -96.092534  7.680739  -16.296509  1.812957  4.025326  6.277339  26.415436  1.494759  0.627382  0.373352  -13.043119  7.683124  0.02287  -16.02301  2.429367  -2.457899  9.745749  -0.129912  -0.140411  0.438741  -0.998045  0.21281  1.191083  -2.731793  0.563854  1.191083  -2.731793  0.563854  -2.986139  15.98343  0.363747  160.335058  43.506504  -155.78241  -8.687096  -4.035166  19.772907  103.512456  -12.654927  12.945796  -4.259706  -0.07024  16.291437  89.585514  31.799629  34.909972  -3.800734  14.361258  -39.568255  101.935862  9.64665  -20.976969  0.107768  4.364373  4.415969  0.0492  3.27426  3.309603  
0.0  89.887642  0.0  0.72467  -27.506234  -96.207129  7.566423  -16.20898  1.980762  4.192802  6.302086  26.455382  1.491384  0.607722  0.373551  -13.295839  7.863703  0.025676  -15.81373  2.395269  -2.402265  9.822494  -0.121619  -0.140532  0.453988  -0.981184  0.208059  1.2331  -2.685746  0.550538  1.2331  -2.685746  0.550537  -2.957822  15.905211  0.51654  160.274498  43.429986  -155.70676  -8.423436  -3.899574  19.49401  103.933073  -12.52716  12.869741  -4.1575  0.041429  16.440407  89.903919  31.826775  34.835629  -4.037548  13.999707  -40.280652  101.536008  9.487445  -20.913578  0.080628  4.345576  4.445077  0.028782  3.259972  3.331633  
0.0  89.887642  0.0  0.820278  -27.426978  -96.2786  7.244789  -16.117271  2.074319  4.267441  6.35778  26.456798  1.570826  0.630346  0.428324  -13.806305  8.077305  -0.082369  -15.398184  2.385013  -2.280722  9.925034  -0.113167  -0.140824  0.468371  -0.960944  0.202728  1.272795  -2.630439  0.535756  1.272795  -2.630439  0.535756  -2.860237  15.841058  0.729076  159.86372  43.401801  -155.522157  -7.998981  -3.833003  19.19802  103.931626  -12.31095  12.851758  -4.315849  0.145  16.490199  90.281959  31.844764  34.682859  -4.152049  13.620484  -41.12068  101.03723  9.281025  -20.872859  -0.044019  4.307608  4.447103  -0.064401  3.230588  3.334065  
